<?xml version="1.0" encoding="UTF-8" standalone="no"?>
<!DOCTYPE svg PUBLIC "-//W3C//DTD SVG 1.1//EN" "http://www.w3.org/Graphics/SVG/1.1/DTD/svg11.dtd">
<svg width="100%" height="100%" viewBox="0 0 129 77" version="1.1" xmlns="http://www.w3.org/2000/svg" xmlns:xlink="http://www.w3.org/1999/xlink" xml:space="preserve" xmlns:serif="http://www.serif.com/" style="fill-rule:evenodd;clip-rule:evenodd;stroke-linecap:round;stroke-linejoin:round;stroke-miterlimit:1.5;">
    <g transform="matrix(1,0,0,1,-104.675,-692.679)">
        <g>
            <g transform="matrix(0.246157,0,0,0.232646,49.5653,480.63)">
                <rect x="261.429" y="939.141" width="4.712" height="31.115" style="fill:rgb(107,125,108);fill-rule:nonzero;"/>
                <path d="M272.531,970.256L277.383,970.256L280.742,951.456L289.698,971.702L298.888,951.503L301.874,970.256L306.678,970.256L300.801,936.808L289.745,960.973L279.062,936.808L272.531,970.256Z" style="fill:rgb(107,125,108);fill-rule:nonzero;"/>
                <path d="M312.183,970.256L317.034,970.256L320.393,951.456L329.35,971.702L338.54,951.503L341.525,970.256L346.33,970.256L340.452,936.808L329.396,960.973L318.714,936.808L312.183,970.256Z" style="fill:rgb(107,125,108);fill-rule:nonzero;"/>
                <rect x="352.908" y="939.141" width="4.712" height="31.115" style="fill:rgb(107,125,108);fill-rule:nonzero;"/>
                <path d="M381.083,954.069L381.083,958.5L388.827,958.5C388.407,962.885 384.209,966.431 379.544,966.431C376.932,966.431 374.179,965.311 371.987,963.305C369.515,961.113 368.255,958.22 368.255,954.768C368.255,948.097 373.293,942.966 379.871,942.966C383.649,942.966 386.541,944.552 389.2,948.097L392.559,944.879C391.113,943.199 390.273,942.406 389.107,941.567C386.448,939.607 383.183,938.534 379.777,938.534C370.727,938.534 363.543,945.718 363.543,954.768C363.543,963.632 370.681,970.862 379.404,970.862C384.069,970.862 388.501,968.67 391.206,964.984C393.119,962.372 393.959,959.573 393.959,955.515L393.959,954.069L381.083,954.069Z" style="fill:rgb(107,125,108);fill-rule:nonzero;"/>
                <path d="M410.379,957.007C414.531,956.121 417.283,952.669 417.283,948.284C417.283,945.299 415.837,942.5 413.551,940.96C411.592,939.654 409.353,939.141 405.341,939.141L399.836,939.141L399.836,970.256L404.548,970.256L404.548,957.521L405.388,957.521L414.251,970.256L419.989,970.256L410.379,957.007ZM404.548,953.415L404.548,943.573L406.227,943.573C408.42,943.573 409.773,943.899 410.892,944.645C412.012,945.439 412.711,946.838 412.711,948.331C412.711,949.963 411.965,951.456 410.752,952.343C409.679,953.089 408.14,953.415 406.041,953.415L404.548,953.415Z" style="fill:rgb(107,125,108);fill-rule:nonzero;"/>
                <path d="M444.386,962.699L447.651,970.256L452.783,970.256L437.949,937.182L422.554,970.256L427.592,970.256L431.091,962.699L444.386,962.699ZM442.473,958.267L433.05,958.267L437.855,947.724L442.473,958.267Z" style="fill:rgb(107,125,108);fill-rule:nonzero;"/>
                <path d="M463.512,943.573L470.649,943.573L470.649,939.141L451.663,939.141L451.663,943.573L458.801,943.573L458.801,970.256L463.512,970.256L463.512,943.573Z" style="fill:rgb(107,125,108);fill-rule:nonzero;"/>
                <rect x="474.848" y="939.141" width="4.712" height="31.115" style="fill:rgb(107,125,108);fill-rule:nonzero;"/>
                <path d="M501.811,938.534C492.901,938.534 485.484,945.812 485.484,954.582C485.484,958.827 486.79,962.465 489.402,965.358C492.481,968.763 497.099,970.862 501.578,970.862C510.674,970.862 517.998,963.678 517.998,954.722C517.998,945.812 510.721,938.534 501.811,938.534ZM501.764,942.966C508.295,942.966 513.287,948.097 513.287,954.722C513.287,961.299 508.202,966.431 501.624,966.431C498.779,966.431 495.84,965.218 493.647,963.118C491.315,960.879 490.195,958.127 490.195,954.628C490.195,948.097 495.327,942.966 501.764,942.966Z" style="fill:rgb(107,125,108);fill-rule:nonzero;"/>
                <path d="M523.876,970.256L528.587,970.256L528.587,948.471L551.259,972.168L551.259,939.141L546.547,939.141L546.547,960.739L523.876,937.042L523.876,970.256Z" style="fill:rgb(107,125,108);fill-rule:nonzero;"/>
                <path d="M585.173,938.534C576.263,938.534 568.845,945.812 568.845,954.582C568.845,958.827 570.152,962.465 572.764,965.358C575.843,968.763 580.461,970.862 584.939,970.862C594.036,970.862 601.36,963.678 601.36,954.722C601.36,945.812 594.082,938.534 585.173,938.534ZM585.126,942.966C591.657,942.966 596.648,948.097 596.648,954.722C596.648,961.299 591.563,966.431 584.986,966.431C582.14,966.431 579.201,965.218 577.009,963.118C574.677,960.879 573.557,958.127 573.557,954.628C573.557,948.097 578.688,942.966 585.126,942.966Z" style="fill:rgb(107,125,108);fill-rule:nonzero;"/>
                <path d="M622.772,943.573L622.772,939.141L607.237,939.141L607.237,970.256L611.949,970.256L611.949,955.468L622.398,955.468L622.398,951.036L611.949,951.036L611.949,943.573L622.772,943.573Z" style="fill:rgb(107,125,108);fill-rule:nonzero;"/>
                <path d="M643.717,943.573L643.717,939.141L628.183,939.141L628.183,970.256L632.894,970.256L632.894,955.468L643.344,955.468L643.344,951.036L632.894,951.036L632.894,943.573L643.717,943.573Z" style="fill:rgb(107,125,108);fill-rule:nonzero;"/>
                <rect x="649.128" y="939.141" width="4.712" height="31.115" style="fill:rgb(107,125,108);fill-rule:nonzero;"/>
                <path d="M684.302,940.82C681.503,939.188 679.217,938.534 676.185,938.534C667.088,938.534 659.764,945.812 659.764,954.862C659.764,963.725 666.948,970.862 675.858,970.862C678.89,970.862 681.549,970.116 684.302,968.53L684.302,962.885C681.223,965.451 678.984,966.431 675.905,966.431C669.467,966.431 664.476,961.346 664.476,954.815C664.476,948.191 669.514,942.966 675.858,942.966C678.984,942.966 681.363,943.946 684.302,946.371L684.302,940.82Z" style="fill:rgb(107,125,108);fill-rule:nonzero;"/>
                <path d="M707.346,943.573L707.346,939.141L690.179,939.141L690.179,970.256L707.346,970.256L707.346,965.824L694.891,965.824L694.891,955.468L706.973,955.468L706.973,951.036L694.891,951.036L694.891,943.573L707.346,943.573Z" style="fill:rgb(107,125,108);fill-rule:nonzero;"/>
            </g>
            <g transform="matrix(0.439806,0,0,0.439806,10.0633,300.985)">
                <path d="M275.304,952.945C275.304,959.262 274.697,963.817 273.482,966.611C272.282,969.314 270.24,970.666 267.355,970.666C264.47,970.666 262.42,969.307 261.205,966.589C260.005,963.946 259.405,959.307 259.405,952.671C259.405,946.035 260.005,941.396 261.205,938.754C262.404,936.021 264.447,934.654 267.332,934.654C270.005,934.654 271.979,935.854 273.254,938.253C274.621,940.789 275.304,945.686 275.304,952.945ZM270.475,952.945C270.475,947.63 270.248,943.955 269.792,941.92C269.336,939.901 268.509,938.891 267.309,938.891C266.11,938.891 265.274,939.893 264.804,941.897C264.348,943.902 264.12,947.508 264.12,952.717C264.12,957.925 264.348,961.539 264.804,963.559C265.274,965.564 266.11,966.566 267.309,966.566C268.494,966.566 269.314,965.571 269.769,963.582C270.24,961.684 270.475,958.138 270.475,952.945Z" style="fill:rgb(167,65,74);fill-rule:nonzero;"/>
                <path d="M282.684,935.087L293.868,935.087L293.868,939.164L286.283,939.164L285.144,948.002L285.714,948.002C287.096,948.002 288.322,948.222 289.392,948.662C290.463,949.103 291.363,949.748 292.092,950.598C292.82,951.449 293.375,952.497 293.754,953.742C294.134,954.987 294.324,956.407 294.324,958.001C294.324,961.949 293.466,965.055 291.75,967.317C290.034,969.55 287.65,970.666 284.598,970.666C282.882,970.666 281.021,970.18 279.017,969.208L280.201,965.017C281.826,965.867 283.185,966.292 284.279,966.292C285.828,966.292 287.058,965.594 287.969,964.197C288.88,962.785 289.335,960.886 289.335,958.502C289.335,953.992 287.399,951.737 283.527,951.737C282.57,951.737 281.606,951.882 280.634,952.17L282.684,935.087Z" style="fill:rgb(167,65,74);fill-rule:nonzero;"/>
                <rect x="305.986" y="956.407" width="8.291" height="3.553" style="fill:rgb(167,65,74);fill-rule:nonzero;"/>
                <path d="M330.814,946.521L326.167,946.521L326.122,945.132C326.122,941.29 326.699,938.587 327.853,937.023C329.022,935.444 330.981,934.654 333.729,934.654C338.907,934.654 341.497,937.524 341.497,943.264C341.497,947.136 339.56,952.717 335.688,960.006L332.887,965.267C332.871,965.298 332.826,965.389 332.75,965.541C332.674,965.693 332.568,965.913 332.431,966.201L341.132,966.201L341.132,970.256L325.689,970.256C325.947,969.679 326.486,968.532 327.306,966.816C328.126,965.1 329.242,962.785 330.654,959.869C331.854,957.318 332.856,955.154 333.661,953.377C334.466,951.601 335.073,950.143 335.483,949.004C336.303,946.726 336.713,944.76 336.713,943.105C336.713,940.189 335.703,938.731 333.684,938.731C331.74,938.731 330.768,940.538 330.768,944.152L330.791,946.157L330.814,946.521Z" style="fill:rgb(167,65,74);fill-rule:nonzero;"/>
                <path d="M348.922,935.087L360.106,935.087L360.106,939.164L352.521,939.164L351.382,948.002L351.952,948.002C353.333,948.002 354.56,948.222 355.63,948.662C356.701,949.103 357.6,949.748 358.329,950.598C359.058,951.449 359.612,952.497 359.992,953.742C360.372,954.987 360.562,956.407 360.562,958.001C360.562,961.949 359.704,965.055 357.988,967.317C356.272,969.55 353.888,970.666 350.835,970.666C349.12,970.666 347.259,970.18 345.255,969.208L346.439,965.017C348.064,965.867 349.423,966.292 350.517,966.292C352.065,966.292 353.295,965.594 354.207,964.197C355.118,962.785 355.573,960.886 355.573,958.502C355.573,953.992 353.637,951.737 349.765,951.737C348.808,951.737 347.844,951.882 346.872,952.17L348.922,935.087Z" style="fill:rgb(167,65,74);fill-rule:nonzero;"/>
                <rect x="372.224" y="956.407" width="8.291" height="3.553" style="fill:rgb(167,65,74);fill-rule:nonzero;"/>
                <path d="M394.341,935.087L402.359,935.087L402.359,970.256L397.826,970.256L397.826,939.118L394.341,939.118L394.341,935.087Z" style="fill:rgb(167,65,74);fill-rule:nonzero;"/>
                <path d="M416.481,970.256L411.424,970.256L414.818,963.422C415.426,962.177 416.029,960.898 416.629,959.584C417.229,958.271 417.817,956.9 418.394,955.473C417.225,956.414 416.018,956.885 414.773,956.885C412.692,956.885 411.159,956.046 410.172,954.368C409.185,952.69 408.691,950.082 408.691,946.544C408.691,942.292 409.268,939.248 410.422,937.41C411.576,935.573 413.497,934.654 416.185,934.654C418.903,934.654 420.847,935.58 422.016,937.433C423.185,939.286 423.77,942.368 423.77,946.681C423.77,949.87 423.406,952.816 422.677,955.519C422.327,956.855 421.826,958.347 421.173,959.994C420.52,961.642 419.708,963.491 418.736,965.541L416.891,969.39L416.481,970.256ZM419.146,945.929C419.146,941.298 418.151,938.982 416.162,938.982C414.188,938.982 413.201,941.267 413.201,945.838C413.201,948.237 413.433,949.976 413.896,951.054C414.359,952.132 415.114,952.671 416.162,952.671C417.21,952.671 417.969,952.136 418.44,951.065C418.911,949.995 419.146,948.283 419.146,945.929Z" style="fill:rgb(167,65,74);fill-rule:nonzero;"/>
                <path d="M435.797,970.256L430.74,970.256L434.134,963.422C434.741,962.177 435.345,960.898 435.945,959.584C436.545,958.271 437.133,956.9 437.71,955.473C436.541,956.414 435.333,956.885 434.088,956.885C432.008,956.885 430.474,956.046 429.487,954.368C428.5,952.69 428.007,950.082 428.007,946.544C428.007,942.292 428.584,939.248 429.738,937.41C430.892,935.573 432.813,934.654 435.501,934.654C438.219,934.654 440.162,935.58 441.332,937.433C442.501,939.286 443.086,942.368 443.086,946.681C443.086,949.87 442.721,952.816 441.992,955.519C441.643,956.855 441.142,958.347 440.489,959.994C439.836,961.642 439.023,963.491 438.052,965.541L436.207,969.39L435.797,970.256ZM438.462,945.929C438.462,941.298 437.467,938.982 435.478,938.982C433.504,938.982 432.517,941.267 432.517,945.838C432.517,948.237 432.748,949.976 433.211,951.054C433.675,952.132 434.43,952.671 435.478,952.671C436.526,952.671 437.285,952.136 437.756,951.065C438.226,949.995 438.462,948.283 438.462,945.929Z" style="fill:rgb(167,65,74);fill-rule:nonzero;"/>
                <path d="M458.301,951.168C459.88,951.745 460.966,952.664 461.558,953.924C462.151,955.184 462.447,957.227 462.447,960.051C462.447,963.696 461.835,966.376 460.613,968.092C459.391,969.808 457.474,970.666 454.862,970.666C452.235,970.666 450.31,969.808 449.087,968.092C447.865,966.376 447.254,963.696 447.254,960.051C447.254,957.227 447.55,955.184 448.142,953.924C448.734,952.664 449.82,951.745 451.399,951.168C450.002,950.561 449.015,949.665 448.438,948.48C447.861,947.205 447.573,945.481 447.573,943.31C447.573,941.806 447.713,940.508 447.994,939.415C448.275,938.321 448.712,937.422 449.304,936.715C449.896,936.009 450.652,935.489 451.57,935.155C452.489,934.821 453.586,934.654 454.862,934.654C456.137,934.654 457.231,934.821 458.142,935.155C459.053,935.489 459.804,936.009 460.397,936.715C460.989,937.422 461.425,938.321 461.706,939.415C461.987,940.508 462.128,941.806 462.128,943.31C462.128,945.481 461.839,947.205 461.262,948.48C460.685,949.665 459.698,950.561 458.301,951.168ZM457.458,943.697C457.458,940.386 456.585,938.731 454.839,938.731C453.108,938.731 452.242,940.371 452.242,943.651C452.242,947.296 453.115,949.118 454.862,949.118C456.593,949.118 457.458,947.311 457.458,943.697ZM457.777,960.598C457.777,959.368 457.724,958.316 457.618,957.443C457.511,956.57 457.337,955.86 457.094,955.314C456.851,954.767 456.543,954.364 456.171,954.106C455.799,953.848 455.355,953.719 454.839,953.719C453.821,953.719 453.081,954.243 452.618,955.291C452.155,956.339 451.923,958.032 451.923,960.37C451.923,964.455 452.903,966.497 454.862,966.497C456.805,966.497 457.777,964.531 457.777,960.598Z" style="fill:rgb(167,65,74);fill-rule:nonzero;"/>
            </g>
            <g transform="matrix(0.232646,0,0,0.232646,107.816,522.181)">
                <path d="M279.669,962.699L282.934,970.256L288.065,970.256L273.231,937.182L257.837,970.256L262.875,970.256L266.374,962.699L279.669,962.699ZM277.756,958.267L268.333,958.267L273.138,947.724L277.756,958.267Z" style="fill:rgb(107,125,108);fill-rule:nonzero;"/>
                <path d="M302.527,957.007C306.678,956.121 309.431,952.669 309.431,948.284C309.431,945.299 307.985,942.5 305.699,940.96C303.74,939.654 301.5,939.141 297.489,939.141L291.984,939.141L291.984,970.256L296.696,970.256L296.696,957.521L297.535,957.521L306.399,970.256L312.136,970.256L302.527,957.007ZM296.696,953.415L296.696,943.573L298.375,943.573C300.567,943.573 301.92,943.899 303.04,944.645C304.159,945.439 304.859,946.838 304.859,948.331C304.859,949.963 304.113,951.456 302.9,952.343C301.827,953.089 300.288,953.415 298.188,953.415L296.696,953.415Z" style="fill:rgb(107,125,108);fill-rule:nonzero;"/>
                <path d="M327.344,957.007C331.496,956.121 334.248,952.669 334.248,948.284C334.248,945.299 332.802,942.5 330.516,940.96C328.557,939.654 326.318,939.141 322.306,939.141L316.801,939.141L316.801,970.256L321.513,970.256L321.513,957.521L322.352,957.521L331.216,970.256L336.954,970.256L327.344,957.007ZM321.513,953.415L321.513,943.573L323.192,943.573C325.385,943.573 326.737,943.899 327.857,944.645C328.977,945.439 329.676,946.838 329.676,948.331C329.676,949.963 328.93,951.456 327.717,952.343C326.644,953.089 325.105,953.415 323.006,953.415L321.513,953.415Z" style="fill:rgb(107,125,108);fill-rule:nonzero;"/>
                <rect x="341.618" y="939.141" width="4.712" height="31.115" style="fill:rgb(107,125,108);fill-rule:nonzero;"/>
                <path d="M355.473,939.141L350.342,939.141L363.963,972.588L377.911,939.141L372.78,939.141L364.057,960.693L355.473,939.141Z" style="fill:rgb(107,125,108);fill-rule:nonzero;"/>
                <path d="M399.137,943.573L399.137,939.141L381.97,939.141L381.97,970.256L399.137,970.256L399.137,965.824L386.681,965.824L386.681,955.468L398.763,955.468L398.763,951.036L386.681,951.036L386.681,943.573L399.137,943.573Z" style="fill:rgb(107,125,108);fill-rule:nonzero;"/>
                <path d="M405.294,970.256L411.732,970.256C417.283,970.256 419.989,969.556 423.114,967.27C427.219,964.331 429.365,959.993 429.365,954.675C429.365,949.45 427.219,945.019 423.347,942.173C420.315,939.981 417.19,939.141 411.825,939.141L405.294,939.141L405.294,970.256ZM410.006,965.824L410.006,943.573L412.105,943.573C415.884,943.573 418.356,944.226 420.409,945.765C423.067,947.724 424.654,951.036 424.654,954.722C424.654,958.36 423.114,961.579 420.409,963.585C418.216,965.171 415.884,965.824 412.105,965.824L410.006,965.824Z" style="fill:rgb(107,125,108);fill-rule:nonzero;"/>
            </g>
            <g transform="matrix(0.173058,0,0,0.173058,89.4469,571.749)">
                <path d="M279.715,963.678L282.374,970.256L288.859,970.256L275.797,938.488L271.225,938.488L257.744,970.256L264.181,970.256L266.98,963.678L279.715,963.678ZM277.803,958.78L268.939,958.78L273.464,947.584L277.803,958.78Z" style="fill:rgb(107,125,108);fill-rule:nonzero;"/>
                <path d="M292.637,970.256L303.133,970.256C306.585,970.256 309.058,969.509 310.877,967.877C312.649,966.291 313.629,963.958 313.629,961.486C313.629,959.2 312.789,957.007 311.39,955.608C310.41,954.582 309.431,954.115 307.331,953.649C308.544,952.902 309.058,952.482 309.571,951.783C310.27,950.663 310.737,949.03 310.737,947.351C310.737,944.785 309.664,942.36 307.938,941.007C306.352,939.747 303.926,939.141 300.334,939.141L292.637,939.141L292.637,970.256ZM298.701,952.109L298.701,944.039L300.521,944.039C303.553,944.039 305.139,945.392 305.139,948.051C305.139,950.756 303.553,952.109 300.427,952.109L298.701,952.109ZM298.701,965.358L298.701,956.728L300.987,956.728C303.506,956.728 304.486,956.914 305.559,957.614C306.725,958.314 307.378,959.573 307.378,961.066C307.378,963.958 305.419,965.358 301.314,965.358L298.701,965.358Z" style="fill:rgb(107,125,108);fill-rule:nonzero;"/>
                <path d="M283.727,983.338C281.021,981.985 278.876,981.425 276.123,981.425C267.027,981.425 259.703,988.749 259.703,997.845C259.703,1006.85 266.934,1013.94 276.123,1013.94C278.736,1013.94 280.928,1013.43 283.727,1012.12L283.727,1004.98C281.255,1007.46 279.202,1008.39 276.263,1008.39C270.386,1008.39 265.954,1003.86 265.954,997.799C265.954,991.688 270.386,986.976 276.123,986.976C279.016,986.976 281.208,988.003 283.727,990.475L283.727,983.338Z" style="fill:rgb(107,125,108);fill-rule:nonzero;"/>
                <path d="M290.025,1013.24L298.888,1013.24C303.6,1013.24 307.005,1012.17 309.99,1009.65C313.536,1006.71 315.635,1002.28 315.635,997.659C315.635,992.994 313.582,988.562 310.084,985.717C307.145,983.291 303.506,982.125 298.935,982.125L290.025,982.125L290.025,1013.24ZM296.089,1007.97L296.089,987.396L297.722,987.396C301.64,987.396 304.019,988.096 306.025,989.915C308.125,991.781 309.384,994.673 309.384,997.659C309.384,1000.64 308.125,1003.63 306.025,1005.5C304.113,1007.22 301.64,1007.97 297.722,1007.97L296.089,1007.97Z" style="fill:rgb(107,125,108);fill-rule:nonzero;"/>
            </g>
            <g transform="matrix(0.353799,0,0,0.353799,76.1998,418.876)">
                <path d="M271.972,957.007C276.123,956.121 278.876,952.669 278.876,948.284C278.876,945.299 277.43,942.5 275.144,940.96C273.184,939.654 270.945,939.141 266.934,939.141L261.429,939.141L261.429,970.256L266.14,970.256L266.14,957.521L266.98,957.521L275.843,970.256L281.581,970.256L271.972,957.007ZM266.14,953.415L266.14,943.573L267.82,943.573C270.012,943.573 271.365,943.899 272.485,944.645C273.604,945.439 274.304,946.838 274.304,948.331C274.304,949.963 273.558,951.456 272.345,952.343C271.272,953.089 269.732,953.415 267.633,953.415L266.14,953.415Z" style="fill:rgb(107,125,108);fill-rule:nonzero;"/>
                <path d="M303.413,943.573L303.413,939.141L286.246,939.141L286.246,970.256L303.413,970.256L303.413,965.824L290.958,965.824L290.958,955.468L303.04,955.468L303.04,951.036L290.958,951.036L290.958,943.573L303.413,943.573Z" style="fill:rgb(107,125,108);fill-rule:nonzero;"/>
                <path d="M328.65,962.699L331.915,970.256L337.047,970.256L322.213,937.182L306.818,970.256L311.856,970.256L315.355,962.699L328.65,962.699ZM326.737,958.267L317.314,958.267L322.119,947.724L326.737,958.267Z" style="fill:rgb(107,125,108);fill-rule:nonzero;"/>
                <path d="M345.677,939.141L340.965,939.141L340.965,970.256L354.82,970.256L354.82,965.824L345.677,965.824L345.677,939.141Z" style="fill:rgb(107,125,108);fill-rule:nonzero;"/>
                <rect x="359.252" y="939.141" width="4.712" height="31.115" style="fill:rgb(107,125,108);fill-rule:nonzero;"/>
                <path d="M380.011,943.573L387.148,943.573L387.148,939.141L368.162,939.141L368.162,943.573L375.299,943.573L375.299,970.256L380.011,970.256L380.011,943.573Z" style="fill:rgb(107,125,108);fill-rule:nonzero;"/>
                <path d="M399.51,956.821L399.51,970.256L404.221,970.256L404.221,956.821L414.391,939.141L409.026,939.141L401.842,951.596L394.752,939.141L389.34,939.141L399.51,956.821Z" style="fill:rgb(107,125,108);fill-rule:nonzero;"/>
            </g>
            <g transform="matrix(0.578384,0,0,0.505579,80.9901,402.796)">
                <path d="M260.962,599.52C260.962,586.179 251.494,575.347 239.832,575.347L63.809,575.347C52.147,575.347 42.679,586.179 42.679,599.52L42.679,698.387C42.679,711.729 52.147,722.56 63.809,722.56L239.832,722.56C251.494,722.56 260.962,711.729 260.962,698.387L260.962,599.52Z" style="fill:none;stroke:rgb(107,125,108);stroke-width:3.68px;stroke-dasharray:0,7.36,0,0;"/>
            </g>
            <g transform="matrix(0.713779,0,0,0.713779,111.01,732.125)">
                <path d="M21,8.25C21,5.765 18.901,3.75 16.312,3.75C14.377,3.75 12.715,4.876 12,6.483C11.285,4.876 9.623,3.75 7.687,3.75C5.1,3.75 3,5.765 3,8.25C3,15.47 12,20.25 12,20.25C12,20.25 21,15.47 21,8.25Z" style="fill:none;fill-rule:nonzero;stroke:rgb(107,125,108);stroke-width:1.5px;stroke-miterlimit:4;"/>
            </g>
            <g transform="matrix(0.53673,0,0,0.53673,-33.344,617.025)">
                <g transform="matrix(1,0,0,1,0,-0.210181)">
                    <circle cx="274.911" cy="255.269" r="1.965" style="fill:rgb(167,65,74);"/>
                </g>
                <g transform="matrix(1,0,0,1,-0.00515011,5.76291)">
                    <circle cx="274.911" cy="255.269" r="1.965" style="fill:rgb(167,65,74);"/>
                </g>
                <g transform="matrix(1,0,0,1,0.126693,11.4517)">
                    <circle cx="274.911" cy="255.269" r="1.965" style="fill:rgb(167,65,74);"/>
                </g>
                <g transform="matrix(1,0,0,1,19.818,-0.210181)">
                    <circle cx="274.911" cy="255.269" r="1.965" style="fill:rgb(167,65,74);"/>
                </g>
                <g transform="matrix(1,0,0,1,19.8128,5.76291)">
                    <circle cx="274.911" cy="255.269" r="1.965" style="fill:rgb(167,65,74);"/>
                </g>
                <g transform="matrix(1,0,0,1,19.9447,11.4517)">
                    <circle cx="274.911" cy="255.269" r="1.965" style="fill:rgb(167,65,74);"/>
                </g>
                <g transform="matrix(1,0,0,1,39.636,-0.210181)">
                    <circle cx="274.911" cy="255.269" r="1.965" style="fill:rgb(167,65,74);"/>
                </g>
                <g transform="matrix(1,0,0,1,39.6308,5.76291)">
                    <circle cx="274.911" cy="255.269" r="1.965" style="fill:rgb(167,65,74);"/>
                </g>
                <g transform="matrix(1,0,0,1,39.7626,11.4517)">
                    <circle cx="274.911" cy="255.269" r="1.965" style="fill:rgb(167,65,74);"/>
                </g>
                <g transform="matrix(1,0,0,1,59.4539,-0.210181)">
                    <circle cx="274.911" cy="255.269" r="1.965" style="fill:rgb(167,65,74);"/>
                </g>
                <g transform="matrix(1,0,0,1,59.4488,5.76291)">
                    <circle cx="274.911" cy="255.269" r="1.965" style="fill:rgb(167,65,74);"/>
                </g>
                <g transform="matrix(1,0,0,1,59.5806,11.4517)">
                    <circle cx="274.911" cy="255.269" r="1.965" style="fill:rgb(167,65,74);"/>
                </g>
                <g transform="matrix(1,0,0,1,79.2719,-0.210181)">
                    <circle cx="274.911" cy="255.269" r="1.965" style="fill:rgb(167,65,74);"/>
                </g>
                <g transform="matrix(1,0,0,1,79.2668,5.76291)">
                    <circle cx="274.911" cy="255.269" r="1.965" style="fill:rgb(167,65,74);"/>
                </g>
                <g transform="matrix(1,0,0,1,79.3986,11.4517)">
                    <circle cx="274.911" cy="255.269" r="1.965" style="fill:rgb(167,65,74);"/>
                </g>
                <g transform="matrix(1,0,0,1,6.60599,-0.210181)">
                    <circle cx="274.911" cy="255.269" r="1.965" style="fill:rgb(167,65,74);"/>
                </g>
                <g transform="matrix(1,0,0,1,6.60084,5.76291)">
                    <circle cx="274.911" cy="255.269" r="1.965" style="fill:rgb(167,65,74);"/>
                </g>
                <g transform="matrix(1,0,0,1,6.73269,11.4517)">
                    <circle cx="274.911" cy="255.269" r="1.965" style="fill:rgb(167,65,74);"/>
                </g>
                <g transform="matrix(1,0,0,1,26.424,-0.210181)">
                    <circle cx="274.911" cy="255.269" r="1.965" style="fill:rgb(167,65,74);"/>
                </g>
                <g transform="matrix(1,0,0,1,26.4188,5.76291)">
                    <circle cx="274.911" cy="255.269" r="1.965" style="fill:rgb(167,65,74);"/>
                </g>
                <g transform="matrix(1,0,0,1,26.5507,11.4517)">
                    <circle cx="274.911" cy="255.269" r="1.965" style="fill:rgb(167,65,74);"/>
                </g>
                <g transform="matrix(1,0,0,1,46.2419,-0.210181)">
                    <circle cx="274.911" cy="255.269" r="1.965" style="fill:rgb(167,65,74);"/>
                </g>
                <g transform="matrix(1,0,0,1,46.2368,5.76291)">
                    <circle cx="274.911" cy="255.269" r="1.965" style="fill:rgb(167,65,74);"/>
                </g>
                <g transform="matrix(1,0,0,1,46.3686,11.4517)">
                    <circle cx="274.911" cy="255.269" r="1.965" style="fill:rgb(167,65,74);"/>
                </g>
                <g transform="matrix(1,0,0,1,66.0599,-0.210181)">
                    <circle cx="274.911" cy="255.269" r="1.965" style="fill:rgb(167,65,74);"/>
                </g>
                <g transform="matrix(1,0,0,1,66.0548,5.76291)">
                    <circle cx="274.911" cy="255.269" r="1.965" style="fill:rgb(167,65,74);"/>
                </g>
                <g transform="matrix(1,0,0,1,66.1866,11.4517)">
                    <circle cx="274.911" cy="255.269" r="1.965" style="fill:rgb(167,65,74);"/>
                </g>
                <g transform="matrix(1,0,0,1,85.8779,-0.210181)">
                    <circle cx="274.911" cy="255.269" r="1.965" style="fill:rgb(167,65,74);"/>
                </g>
                <g transform="matrix(1,0,0,1,85.8728,5.76291)">
                    <circle cx="274.911" cy="255.269" r="1.965" style="fill:rgb(167,65,74);"/>
                </g>
                <g transform="matrix(1,0,0,1,86.0046,11.4517)">
                    <circle cx="274.911" cy="255.269" r="1.965" style="fill:rgb(167,65,74);"/>
                </g>
                <g transform="matrix(1,0,0,1,13.212,-0.210181)">
                    <circle cx="274.911" cy="255.269" r="1.965" style="fill:rgb(167,65,74);"/>
                </g>
                <g transform="matrix(1,0,0,1,13.2068,5.76291)">
                    <circle cx="274.911" cy="255.269" r="1.965" style="fill:rgb(167,65,74);"/>
                </g>
                <g transform="matrix(1,0,0,1,13.3387,11.4517)">
                    <circle cx="274.911" cy="255.269" r="1.965" style="fill:rgb(167,65,74);"/>
                </g>
                <g transform="matrix(1,0,0,1,33.03,-0.210181)">
                    <circle cx="274.911" cy="255.269" r="1.965" style="fill:rgb(167,65,74);"/>
                </g>
                <g transform="matrix(1,0,0,1,33.0248,5.76291)">
                    <circle cx="274.911" cy="255.269" r="1.965" style="fill:rgb(167,65,74);"/>
                </g>
                <g transform="matrix(1,0,0,1,33.1567,11.4517)">
                    <circle cx="274.911" cy="255.269" r="1.965" style="fill:rgb(167,65,74);"/>
                </g>
                <g transform="matrix(1,0,0,1,52.8479,-0.210181)">
                    <circle cx="274.911" cy="255.269" r="1.965" style="fill:rgb(167,65,74);"/>
                </g>
                <g transform="matrix(1,0,0,1,52.8428,5.76291)">
                    <circle cx="274.911" cy="255.269" r="1.965" style="fill:rgb(167,65,74);"/>
                </g>
                <g transform="matrix(1,0,0,1,52.9746,11.4517)">
                    <circle cx="274.911" cy="255.269" r="1.965" style="fill:rgb(167,65,74);"/>
                </g>
                <g transform="matrix(1,0,0,1,72.6659,-0.210181)">
                    <circle cx="274.911" cy="255.269" r="1.965" style="fill:rgb(167,65,74);"/>
                </g>
                <g transform="matrix(1,0,0,1,72.6608,5.76291)">
                    <circle cx="274.911" cy="255.269" r="1.965" style="fill:rgb(167,65,74);"/>
                </g>
                <g transform="matrix(1,0,0,1,72.7926,11.4517)">
                    <circle cx="274.911" cy="255.269" r="1.965" style="fill:rgb(167,65,74);"/>
                </g>
                <g transform="matrix(1,0,0,1,92.4839,-0.210181)">
                    <circle cx="274.911" cy="255.269" r="1.965" style="fill:rgb(167,65,74);"/>
                </g>
                <g transform="matrix(1,0,0,1,92.4787,5.76291)">
                    <circle cx="274.911" cy="255.269" r="1.965" style="fill:rgb(167,65,74);"/>
                </g>
                <g transform="matrix(1,0,0,1,92.6106,11.4517)">
                    <circle cx="274.911" cy="255.269" r="1.965" style="fill:rgb(167,65,74);"/>
                </g>
            </g>
        </g>
    </g>
</svg>
