<?xml version="1.0" encoding="UTF-8" standalone="no"?>
<!DOCTYPE svg PUBLIC "-//W3C//DTD SVG 1.1//EN" "http://www.w3.org/Graphics/SVG/1.1/DTD/svg11.dtd">
<svg width="100%" height="100%" viewBox="0 0 182 182" version="1.1" xmlns="http://www.w3.org/2000/svg" xmlns:xlink="http://www.w3.org/1999/xlink" xml:space="preserve" xmlns:serif="http://www.serif.com/" style="fill-rule:evenodd;clip-rule:evenodd;stroke-linecap:round;stroke-linejoin:round;stroke-miterlimit:1.5;">
    <g transform="matrix(1,0,0,1,-461.14,-153.105)">
        <g transform="matrix(1,0,0,1,-354.675,-25.5784)">
            <g transform="matrix(1,0,0,1,7.2206,-2.89237)">
                <path d="M975.954,319.981C960.088,345.496 931.789,362.49 899.552,362.49C867.315,362.49 839.016,345.496 823.15,319.981L975.954,319.981Z" style="fill:none;stroke:rgb(64,118,166);stroke-width:2px;"/>
            </g>
            <g transform="matrix(1,0,0,1,7.2206,-2.89237)">
                <path d="M810.459,284.861C809.881,280.837 809.595,276.718 809.595,272.533C809.595,222.884 849.903,182.575 899.552,182.575C949.201,182.575 989.509,222.884 989.509,272.533C989.509,276.718 989.223,280.837 988.645,284.861L810.459,284.861Z" style="fill:none;stroke:rgb(64,118,166);stroke-width:2px;"/>
            </g>
            <g transform="matrix(1,0,0,1,449.248,-50.6048)">
                <path d="M411.174,256.734L412.951,259.227L412.024,259.887L407.649,253.747L408.699,252.999C409.214,252.633 409.627,252.392 409.941,252.277C410.257,252.159 410.587,252.128 410.93,252.184C411.528,252.277 412.014,252.586 412.388,253.111C412.789,253.673 412.918,254.253 412.775,254.85C412.633,255.447 412.243,255.973 411.604,256.428L411.174,256.734ZM410.562,255.875L410.908,255.628C411.759,255.022 411.951,254.391 411.485,253.737C411.033,253.103 410.369,253.099 409.491,253.724L409.185,253.942L410.562,255.875Z" style="fill:rgb(192,56,66);fill-rule:nonzero;"/>
                <path d="M418.793,253.214L416.035,254.891L416.269,256.892L415.222,257.528L414.247,248.744L421.484,253.721L420.42,254.368L418.793,253.214ZM417.842,252.541L415.555,250.932L415.885,253.731L417.842,252.541Z" style="fill:rgb(192,56,66);fill-rule:nonzero;"/>
                <path d="M423.339,245.686L422.753,246.585C422.466,246.392 422.232,246.29 422.052,246.277C421.86,246.256 421.649,246.302 421.418,246.416C421.135,246.555 420.939,246.751 420.831,247.004C420.722,247.254 420.727,247.499 420.845,247.738C421.007,248.068 421.384,248.213 421.974,248.172L422.784,248.116C423.442,248.067 423.977,248.14 424.389,248.334C424.801,248.529 425.121,248.858 425.35,249.322C425.656,249.944 425.702,250.56 425.488,251.171C425.272,251.785 424.854,252.245 424.235,252.55C423.648,252.84 423.078,252.905 422.524,252.746C421.976,252.584 421.5,252.211 421.096,251.626L422.017,250.889C422.26,251.263 422.477,251.497 422.668,251.592C423.023,251.78 423.401,251.775 423.804,251.576C424.122,251.419 424.334,251.182 424.439,250.866C424.544,250.549 424.516,250.227 424.355,249.9C424.29,249.769 424.213,249.657 424.122,249.566C424.032,249.474 423.925,249.401 423.802,249.348C423.68,249.294 423.537,249.257 423.375,249.237C423.213,249.217 423.029,249.213 422.824,249.223L422.037,249.273C420.919,249.338 420.174,248.994 419.803,248.241C419.552,247.733 419.537,247.212 419.757,246.679C419.975,246.143 420.374,245.733 420.952,245.448C421.731,245.064 422.527,245.143 423.339,245.686Z" style="fill:rgb(192,56,66);fill-rule:nonzero;"/>
                <path d="M429.187,243.269L428.533,244.119C428.262,243.905 428.036,243.785 427.857,243.758C427.668,243.722 427.453,243.752 427.215,243.847C426.921,243.964 426.711,244.145 426.584,244.388C426.456,244.629 426.442,244.873 426.541,245.121C426.677,245.462 427.041,245.636 427.633,245.641L428.445,245.648C429.105,245.65 429.633,245.764 430.028,245.99C430.423,246.216 430.717,246.569 430.909,247.05C431.167,247.693 431.165,248.311 430.904,248.903C430.641,249.499 430.189,249.925 429.548,250.181C428.941,250.424 428.367,250.445 427.827,250.244C427.294,250.04 426.848,249.631 426.49,249.017L427.466,248.353C427.678,248.745 427.877,248.995 428.06,249.104C428.399,249.319 428.777,249.344 429.194,249.177C429.523,249.045 429.753,248.825 429.882,248.518C430.011,248.21 430.008,247.887 429.873,247.548C429.819,247.412 429.75,247.295 429.667,247.197C429.584,247.099 429.483,247.018 429.365,246.955C429.247,246.892 429.107,246.844 428.947,246.812C428.787,246.779 428.604,246.76 428.399,246.755L427.611,246.744C426.491,246.722 425.775,246.321 425.463,245.542C425.252,245.016 425.278,244.496 425.538,243.981C425.797,243.464 426.226,243.085 426.825,242.846C427.632,242.523 428.419,242.664 429.187,243.269Z" style="fill:rgb(192,56,66);fill-rule:nonzero;"/>
                <path d="M433.221,245.445L434.132,248.368L433.045,248.706L430.804,241.508L432.035,241.125C432.638,240.937 433.106,240.837 433.44,240.825C433.777,240.813 434.1,240.886 434.409,241.046C434.948,241.321 435.313,241.766 435.505,242.382C435.71,243.041 435.652,243.631 435.331,244.154C435.009,244.677 434.474,245.055 433.725,245.288L433.221,245.445ZM432.908,244.438L433.314,244.312C434.311,244.001 434.691,243.462 434.452,242.694C434.22,241.951 433.59,241.74 432.562,242.06L432.203,242.172L432.908,244.438Z" style="fill:rgb(192,56,66);fill-rule:nonzero;"/>
                <path d="M437.052,243.443C436.83,242.406 437.02,241.433 437.622,240.526C438.221,239.619 439.052,239.052 440.115,238.825C441.166,238.601 442.147,238.784 443.059,239.375C443.973,239.966 444.543,240.788 444.768,241.841C444.994,242.902 444.808,243.882 444.207,244.782C443.605,245.686 442.766,246.253 441.69,246.483C440.738,246.686 439.813,246.539 438.914,246.042C437.925,245.491 437.304,244.625 437.052,243.443ZM438.177,243.218C438.351,244.033 438.768,244.645 439.427,245.053C440.084,245.462 440.769,245.591 441.482,245.439C442.255,245.274 442.851,244.867 443.268,244.219C443.685,243.564 443.81,242.848 443.644,242.071C443.476,241.285 443.073,240.682 442.434,240.263C441.798,239.839 441.094,239.71 440.324,239.874C439.557,240.038 438.966,240.444 438.552,241.091C438.136,241.732 438.011,242.441 438.177,243.218Z" style="fill:rgb(192,56,66);fill-rule:nonzero;"/>
                <path d="M449.184,241.903L451.847,244.849L450.463,244.997L447.994,242.157L447.79,242.179L448.118,245.248L446.987,245.369L446.185,237.872L447.511,237.731C448.501,237.625 449.237,237.734 449.717,238.06C450.246,238.422 450.548,238.943 450.62,239.623C450.677,240.154 450.574,240.626 450.31,241.041C450.047,241.455 449.672,241.742 449.184,241.903ZM447.685,241.194L448.044,241.155C449.115,241.041 449.607,240.574 449.52,239.755C449.438,238.988 448.876,238.66 447.833,238.772L447.43,238.815L447.685,241.194Z" style="fill:rgb(192,56,66);fill-rule:nonzero;"/>
                <path d="M454.701,238.254L454.965,244.719L453.828,244.765L453.564,238.301L451.832,238.371L451.788,237.303L456.384,237.115L456.428,238.184L454.701,238.254Z" style="fill:rgb(192,56,66);fill-rule:nonzero;"/>
                <path d="M466.908,238.019L466.804,239.362C466.191,238.763 465.534,238.437 464.833,238.383C464.06,238.324 463.388,238.551 462.816,239.065C462.242,239.576 461.924,240.231 461.862,241.029C461.801,241.818 462.016,242.504 462.507,243.086C462.997,243.669 463.629,243.991 464.401,244.05C464.801,244.081 465.145,244.042 465.434,243.934C465.595,243.881 465.763,243.806 465.938,243.708C466.114,243.611 466.3,243.491 466.497,243.35L466.392,244.718C465.715,245.034 465.019,245.165 464.305,245.11C463.231,245.028 462.343,244.582 461.641,243.774C460.943,242.96 460.635,242.018 460.717,240.951C460.791,239.993 461.173,239.164 461.864,238.463C462.713,237.604 463.756,237.223 464.993,237.318C465.668,237.37 466.306,237.604 466.908,238.019Z" style="fill:rgb(192,56,66);fill-rule:nonzero;"/>
                <path d="M468.054,241.469C468.246,240.426 468.793,239.599 469.696,238.991C470.596,238.382 471.58,238.175 472.65,238.372C473.706,238.566 474.543,239.11 475.16,240.004C475.78,240.899 475.992,241.877 475.798,242.936C475.602,244.003 475.055,244.837 474.156,245.44C473.254,246.045 472.262,246.249 471.18,246.05C470.222,245.874 469.423,245.385 468.783,244.582C468.079,243.695 467.836,242.657 468.054,241.469ZM469.18,241.691C469.03,242.511 469.181,243.235 469.635,243.865C470.085,244.494 470.669,244.874 471.386,245.006C472.164,245.148 472.87,245 473.503,244.56C474.138,244.114 474.527,243.501 474.671,242.72C474.816,241.929 474.674,241.217 474.244,240.586C473.817,239.951 473.217,239.563 472.442,239.421C471.67,239.279 470.969,239.428 470.339,239.869C469.71,240.302 469.324,240.91 469.18,241.691Z" style="fill:rgb(192,56,66);fill-rule:nonzero;"/>
                <path d="M476.508,247.011L478.869,239.313L482.439,246.424L483.975,241.415L485.063,241.748L482.718,249.395L479.144,242.298L477.596,247.344L476.508,247.011Z" style="fill:rgb(192,56,66);fill-rule:nonzero;"/>
                <path d="M488.881,244.423L486.446,250.417L485.392,249.988L487.827,243.994L486.221,243.342L486.624,242.351L490.885,244.082L490.483,245.073L488.881,244.423Z" style="fill:rgb(192,56,66);fill-rule:nonzero;"/>
                <path d="M492.706,249.75L493.361,253.666L492.116,253.045L491.566,249.323L491.382,249.231L490.005,251.993L488.987,251.485L492.351,244.739L493.544,245.333C494.436,245.778 494.996,246.266 495.225,246.799C495.476,247.39 495.449,247.991 495.144,248.603C494.906,249.081 494.564,249.423 494.119,249.63C493.674,249.837 493.203,249.877 492.706,249.75ZM491.825,248.344L492.148,248.506C493.112,248.986 493.778,248.858 494.146,248.121C494.49,247.431 494.193,246.852 493.255,246.384L492.892,246.203L491.825,248.344Z" style="fill:rgb(192,56,66);fill-rule:nonzero;"/>
                <path d="M495.91,250.658C496.469,249.756 497.279,249.187 498.342,248.949C499.402,248.71 500.394,248.877 501.318,249.449C502.231,250.015 502.812,250.827 503.06,251.885C503.311,252.944 503.153,253.932 502.585,254.848C502.014,255.769 501.2,256.347 500.144,256.58C499.083,256.815 498.085,256.643 497.15,256.063C496.322,255.55 495.757,254.803 495.454,253.823C495.121,252.74 495.273,251.685 495.91,250.658ZM496.877,251.275C496.438,251.984 496.315,252.714 496.508,253.465C496.698,254.215 497.103,254.782 497.723,255.166C498.395,255.583 499.107,255.702 499.857,255.523C500.61,255.339 501.196,254.91 501.615,254.235C502.038,253.551 502.165,252.837 501.995,252.092C501.829,251.346 501.412,250.766 500.742,250.351C500.075,249.937 499.368,249.821 498.621,250.001C497.877,250.175 497.296,250.6 496.877,251.275Z" style="fill:rgb(192,56,66);fill-rule:nonzero;"/>
                <path d="M507.185,253.618L503.281,258.777L505.049,260.114L504.403,260.967L501.729,258.943L506.278,252.931L507.185,253.618Z" style="fill:rgb(192,56,66);fill-rule:nonzero;"/>
            </g>
            <g transform="matrix(1,0,0,1,470.338,-21.4367)">
                <path d="M425.484,233.139L425.484,231.669L421.694,231.669L421.694,238.339L425.484,238.339L425.484,236.869L423.424,236.869L423.424,235.719L425.374,235.719L425.374,234.249L423.424,234.249L423.424,233.139L425.484,233.139Z" style="fill:rgb(182,60,70);fill-rule:nonzero;"/>
                <path d="M426.584,238.339L428.314,238.339L428.314,234.259L431.504,238.339L433.234,238.339L433.234,231.669L431.504,231.669L431.504,235.749L428.314,231.669L426.584,231.669L426.584,238.339Z" style="fill:rgb(182,60,70);fill-rule:nonzero;"/>
                <path d="M437.184,233.139L438.624,233.139L438.624,231.669L434.044,231.669L434.044,233.139L435.454,233.139L435.454,238.339L437.184,238.339L437.184,233.139Z" style="fill:rgb(182,60,70);fill-rule:nonzero;"/>
                <path d="M442.844,235.609C443.244,235.509 443.464,235.409 443.694,235.209C444.074,234.879 444.304,234.319 444.304,233.729C444.304,233.179 444.094,232.639 443.734,232.259C443.344,231.849 442.844,231.669 442.094,231.669L439.404,231.669L439.404,238.339L441.134,238.339L441.134,235.779L442.784,238.339L444.944,238.339L442.844,235.609ZM441.134,234.659L441.134,232.999L441.454,232.999C441.784,232.999 442.034,233.069 442.194,233.179C442.384,233.319 442.524,233.589 442.524,233.829C442.524,234.069 442.384,234.349 442.194,234.479C442.034,234.599 441.784,234.659 441.454,234.659L441.134,234.659Z" style="fill:rgb(182,60,70);fill-rule:nonzero;"/>
                <path d="M446.944,235.139L446.944,238.339L448.674,238.339L448.674,235.139L451.174,231.669L449.074,231.669L447.864,233.489L446.604,231.669L444.534,231.669L446.944,235.139Z" style="fill:rgb(182,60,70);fill-rule:nonzero;"/>
            </g>
            <g transform="matrix(1,0,0,1,431.755,6.2903)">
                <path d="M412.012,230.96C412.012,228.077 412.684,225.776 414.027,224.058C415.23,222.503 416.687,221.726 418.398,221.726C420.109,221.726 421.566,222.503 422.769,224.058C424.113,225.776 424.785,228.116 424.785,231.077C424.785,234.03 424.113,236.366 422.769,238.085C421.566,239.64 420.113,240.417 418.41,240.417C416.707,240.417 415.246,239.64 414.027,238.085C412.684,236.366 412.012,233.991 412.012,230.96ZM414.695,230.972C414.695,232.98 415.043,234.647 415.738,235.976C416.434,237.28 417.32,237.933 418.398,237.933C419.469,237.933 420.355,237.28 421.059,235.976C421.762,234.679 422.113,233.042 422.113,231.065C422.113,229.089 421.762,227.448 421.059,226.144C420.355,224.847 419.469,224.198 418.398,224.198C417.336,224.198 416.453,224.847 415.75,226.144C415.047,227.433 414.695,229.042 414.695,230.972Z" style="fill:rgb(64,118,166);fill-rule:nonzero;"/>
                <path d="M432.016,231.722L432.016,229.39C433.172,229.39 433.949,229.261 434.348,229.003C435.059,228.55 435.414,227.823 435.414,226.823C435.414,226.05 435.156,225.421 434.641,224.937C434.133,224.444 433.473,224.198 432.66,224.198C431.902,224.198 431.316,224.382 430.902,224.749C430.504,225.124 430.207,225.757 430.012,226.647L427.293,226.647C427.574,224.944 428.152,223.696 429.027,222.903C429.902,222.11 431.125,221.714 432.695,221.714C434.281,221.714 435.574,222.183 436.574,223.12C437.574,224.05 438.074,225.249 438.074,226.718C438.074,228.374 437.418,229.663 436.105,230.585C437.605,231.468 438.355,232.901 438.355,234.886C438.355,236.511 437.809,237.839 436.715,238.87C435.621,239.901 434.219,240.417 432.508,240.417C430.328,240.417 428.711,239.616 427.656,238.015C427.219,237.343 426.941,236.413 426.824,235.226L429.461,235.226C429.601,236.101 429.943,236.771 430.486,237.235C431.029,237.7 431.738,237.933 432.613,237.933C433.496,237.933 434.226,237.64 434.805,237.054C435.383,236.452 435.672,235.69 435.672,234.769C435.672,233.55 435.238,232.683 434.371,232.167C433.863,231.87 433.078,231.722 432.016,231.722Z" style="fill:rgb(64,118,166);fill-rule:nonzero;"/>
                <rect x="440.617" y="233.175" width="5.227" height="2.297" style="fill:rgb(64,118,166);fill-rule:nonzero;"/>
                <path d="M446.863,230.96C446.863,228.077 447.535,225.776 448.879,224.058C450.082,222.503 451.539,221.726 453.25,221.726C454.961,221.726 456.418,222.503 457.621,224.058C458.965,225.776 459.637,228.116 459.637,231.077C459.637,234.03 458.965,236.366 457.621,238.085C456.418,239.64 454.965,240.417 453.262,240.417C451.559,240.417 450.098,239.64 448.879,238.085C447.535,236.366 446.863,233.991 446.863,230.96ZM449.547,230.972C449.547,232.98 449.894,234.647 450.59,235.976C451.285,237.28 452.172,237.933 453.25,237.933C454.32,237.933 455.207,237.28 455.91,235.976C456.613,234.679 456.965,233.042 456.965,231.065C456.965,229.089 456.613,227.448 455.91,226.144C455.207,224.847 454.32,224.198 453.25,224.198C452.187,224.198 451.305,224.847 450.601,226.144C449.898,227.433 449.547,229.042 449.547,230.972Z" style="fill:rgb(64,118,166);fill-rule:nonzero;"/>
                <path d="M466.867,231.722L466.867,229.39C468.023,229.39 468.801,229.261 469.199,229.003C469.91,228.55 470.266,227.823 470.266,226.823C470.266,226.05 470.008,225.421 469.492,224.937C468.984,224.444 468.324,224.198 467.512,224.198C466.754,224.198 466.168,224.382 465.754,224.749C465.355,225.124 465.059,225.757 464.863,226.647L462.144,226.647C462.426,224.944 463.004,223.696 463.879,222.903C464.754,222.11 465.976,221.714 467.547,221.714C469.133,221.714 470.426,222.183 471.426,223.12C472.426,224.05 472.926,225.249 472.926,226.718C472.926,228.374 472.269,229.663 470.957,230.585C472.457,231.468 473.207,232.901 473.207,234.886C473.207,236.511 472.66,237.839 471.566,238.87C470.473,239.901 469.07,240.417 467.359,240.417C465.18,240.417 463.562,239.616 462.508,238.015C462.07,237.343 461.793,236.413 461.676,235.226L464.312,235.226C464.453,236.101 464.795,236.771 465.338,237.235C465.881,237.7 466.59,237.933 467.465,237.933C468.348,237.933 469.078,237.64 469.656,237.054C470.234,236.452 470.523,235.69 470.523,234.769C470.523,233.55 470.09,232.683 469.223,232.167C468.715,231.87 467.93,231.722 466.867,231.722Z" style="fill:rgb(64,118,166);fill-rule:nonzero;"/>
                <rect x="475.469" y="233.175" width="5.227" height="2.297" style="fill:rgb(64,118,166);fill-rule:nonzero;"/>
                <path d="M486.707,237.558L493.445,237.558L493.445,240.124L481.293,240.124L487.574,232.519C488.191,231.761 488.709,231.105 489.127,230.55C489.545,229.995 489.863,229.53 490.082,229.155C490.527,228.421 490.75,227.761 490.75,227.175C490.75,226.331 490.453,225.624 489.859,225.054C489.266,224.483 488.531,224.198 487.656,224.198C485.828,224.198 484.781,225.28 484.516,227.444L481.797,227.444C482.234,223.632 484.16,221.726 487.574,221.726C489.223,221.726 490.605,222.249 491.723,223.296C492.848,224.343 493.41,225.64 493.41,227.187C493.41,228.171 493.148,229.136 492.625,230.081C492.359,230.573 491.971,231.157 491.459,231.833C490.947,232.509 490.301,233.308 489.519,234.23L486.707,237.558Z" style="fill:rgb(64,118,166);fill-rule:nonzero;"/>
                <path d="M496.527,230.96C496.527,228.077 497.199,225.776 498.543,224.058C499.746,222.503 501.203,221.726 502.914,221.726C504.625,221.726 506.082,222.503 507.285,224.058C508.629,225.776 509.301,228.116 509.301,231.077C509.301,234.03 508.629,236.366 507.285,238.085C506.082,239.64 504.629,240.417 502.926,240.417C501.223,240.417 499.762,239.64 498.543,238.085C497.199,236.366 496.527,233.991 496.527,230.96ZM499.211,230.972C499.211,232.98 499.559,234.647 500.254,235.976C500.949,237.28 501.836,237.933 502.914,237.933C503.984,237.933 504.871,237.28 505.574,235.976C506.277,234.679 506.629,233.042 506.629,231.065C506.629,229.089 506.277,227.448 505.574,226.144C504.871,224.847 503.984,224.198 502.914,224.198C501.851,224.198 500.969,224.847 500.266,226.144C499.562,227.433 499.211,229.042 499.211,230.972Z" style="fill:rgb(64,118,166);fill-rule:nonzero;"/>
                <path d="M516.332,237.558L523.07,237.558L523.07,240.124L510.918,240.124L517.199,232.519C517.816,231.761 518.334,231.105 518.752,230.55C519.17,229.995 519.488,229.53 519.707,229.155C520.152,228.421 520.375,227.761 520.375,227.175C520.375,226.331 520.078,225.624 519.484,225.054C518.891,224.483 518.156,224.198 517.281,224.198C515.453,224.198 514.406,225.28 514.141,227.444L511.422,227.444C511.859,223.632 513.785,221.726 517.199,221.726C518.848,221.726 520.23,222.249 521.348,223.296C522.473,224.343 523.035,225.64 523.035,227.187C523.035,228.171 522.773,229.136 522.25,230.081C521.984,230.573 521.596,231.157 521.084,231.833C520.572,232.509 519.926,233.308 519.144,234.23L516.332,237.558Z" style="fill:rgb(64,118,166);fill-rule:nonzero;"/>
                <path d="M537.754,224.585L532.176,224.585L531.285,227.585C531.418,227.569 531.545,227.558 531.666,227.55C531.787,227.542 531.898,227.538 532,227.538C533.758,227.538 535.199,228.132 536.324,229.319C537.457,230.499 538.023,232.011 538.023,233.855C538.023,235.761 537.383,237.331 536.101,238.565C534.82,239.8 533.207,240.417 531.262,240.417C528.863,240.417 526.973,239.292 525.59,237.042L527.652,235.296C528.223,236.265 528.797,236.948 529.375,237.347C529.953,237.737 530.66,237.933 531.496,237.933C532.59,237.933 533.508,237.55 534.25,236.784C534.992,235.995 535.363,235.038 535.363,233.913C535.363,232.757 534.996,231.812 534.262,231.077C533.527,230.319 532.609,229.94 531.508,229.94C530.281,229.94 529.223,230.476 528.332,231.546L527.43,231.546L530.277,222.03L537.754,222.03L537.754,224.585Z" style="fill:rgb(64,118,166);fill-rule:nonzero;"/>
            </g>
            <g transform="matrix(1,0,0,1,197.472,113.178)">
                <path d="M684.149,219.695L687.401,219.695L687.401,216.746L688.539,216.746L688.539,224.285L687.401,224.285L687.401,220.764L684.149,220.764L684.149,224.285L683.012,224.285L683.012,216.746L684.149,216.746L684.149,219.695Z" style="fill:rgb(203,92,100);fill-rule:nonzero;"/>
                <path d="M692.426,217.815L692.426,224.285L691.288,224.285L691.288,217.815L689.555,217.815L689.555,216.746L694.154,216.746L694.154,217.815L692.426,217.815Z" style="fill:rgb(203,92,100);fill-rule:nonzero;"/>
                <path d="M697.25,217.815L697.25,224.285L696.112,224.285L696.112,217.815L694.379,217.815L694.379,216.746L698.979,216.746L698.979,217.815L697.25,217.815Z" style="fill:rgb(203,92,100);fill-rule:nonzero;"/>
                <path d="M701.132,221.223L701.132,224.285L699.994,224.285L699.994,216.746L701.283,216.746C701.915,216.746 702.392,216.789 702.714,216.877C703.039,216.965 703.326,217.131 703.573,217.375C704.006,217.799 704.223,218.332 704.223,218.977C704.223,219.667 703.992,220.214 703.529,220.618C703.067,221.021 702.444,221.223 701.659,221.223L701.132,221.223ZM701.132,220.168L701.557,220.168C702.602,220.168 703.124,219.766 703.124,218.962C703.124,218.184 702.585,217.795 701.508,217.795L701.132,217.795L701.132,220.168Z" style="fill:rgb(203,92,100);fill-rule:nonzero;"/>
                <path d="M709.657,217.869L708.734,218.415C708.562,218.116 708.398,217.921 708.241,217.83C708.079,217.725 707.869,217.673 707.611,217.673C707.296,217.673 707.034,217.763 706.825,217.942C706.617,218.118 706.513,218.339 706.513,218.606C706.513,218.974 706.786,219.27 707.333,219.495L708.085,219.802C708.697,220.05 709.145,220.351 709.428,220.708C709.711,221.064 709.853,221.501 709.853,222.019C709.853,222.712 709.622,223.285 709.159,223.738C708.694,224.193 708.116,224.421 707.426,224.421C706.772,224.421 706.231,224.228 705.805,223.84C705.385,223.453 705.123,222.908 705.019,222.205L706.171,221.951C706.223,222.393 706.314,222.699 706.444,222.869C706.679,223.194 707.021,223.357 707.47,223.357C707.825,223.357 708.119,223.238 708.354,223C708.588,222.763 708.705,222.462 708.705,222.097C708.705,221.951 708.685,221.816 708.644,221.694C708.603,221.572 708.54,221.46 708.454,221.357C708.367,221.255 708.256,221.159 708.119,221.069C707.983,220.98 707.82,220.894 707.631,220.813L706.903,220.51C705.872,220.074 705.356,219.436 705.356,218.596C705.356,218.03 705.572,217.556 706.005,217.175C706.438,216.791 706.977,216.599 707.621,216.599C708.49,216.599 709.169,217.022 709.657,217.869Z" style="fill:rgb(203,92,100);fill-rule:nonzero;"/>
                <path d="M713.832,220.466C713.832,219.265 714.112,218.306 714.672,217.59C715.173,216.942 715.78,216.619 716.493,216.619C717.206,216.619 717.813,216.942 718.315,217.59C718.874,218.306 719.154,219.281 719.154,220.515C719.154,221.746 718.874,222.719 718.315,223.435C717.813,224.083 717.208,224.407 716.498,224.407C715.788,224.407 715.18,224.083 714.672,223.435C714.112,222.719 713.832,221.729 713.832,220.466ZM714.95,220.471C714.95,221.308 715.095,222.003 715.385,222.556C715.675,223.1 716.044,223.371 716.493,223.371C716.939,223.371 717.309,223.1 717.602,222.556C717.895,222.016 718.041,221.334 718.041,220.51C718.041,219.687 717.895,219.003 717.602,218.459C717.309,217.919 716.939,217.649 716.493,217.649C716.051,217.649 715.683,217.919 715.39,218.459C715.097,218.996 714.95,219.667 714.95,220.471Z" style="fill:rgb(203,92,100);fill-rule:nonzero;"/>
                <path d="M721.518,217.81L720.214,217.81L720.839,216.746L722.655,216.746L722.655,224.285L721.518,224.285L721.518,217.81Z" style="fill:rgb(203,92,100);fill-rule:nonzero;"/>
                <path d="M726.693,223.215L729.501,223.215L729.501,224.285L724.438,224.285L727.055,221.116C727.312,220.8 727.528,220.526 727.702,220.295C727.876,220.064 728.009,219.871 728.1,219.714C728.285,219.408 728.378,219.133 728.378,218.889C728.378,218.538 728.254,218.243 728.007,218.005C727.76,217.768 727.454,217.649 727.089,217.649C726.327,217.649 725.891,218.1 725.78,219.001L724.648,219.001C724.83,217.413 725.632,216.619 727.055,216.619C727.742,216.619 728.318,216.837 728.783,217.273C729.252,217.709 729.486,218.249 729.486,218.894C729.486,219.304 729.377,219.706 729.159,220.1C729.049,220.305 728.887,220.548 728.673,220.83C728.46,221.112 728.191,221.444 727.865,221.829L726.693,223.215Z" style="fill:rgb(203,92,100);fill-rule:nonzero;"/>
                <path d="M732.948,220.784L732.948,219.812C733.43,219.812 733.754,219.758 733.92,219.651C734.216,219.462 734.364,219.159 734.364,218.743C734.364,218.42 734.257,218.158 734.042,217.956C733.83,217.751 733.555,217.649 733.217,217.649C732.901,217.649 732.657,217.725 732.484,217.878C732.318,218.035 732.195,218.298 732.113,218.669L730.981,218.669C731.098,217.96 731.339,217.44 731.703,217.109C732.068,216.779 732.577,216.614 733.232,216.614C733.892,216.614 734.431,216.809 734.848,217.2C735.264,217.587 735.473,218.087 735.473,218.699C735.473,219.389 735.199,219.926 734.652,220.31C735.277,220.678 735.59,221.275 735.59,222.102C735.59,222.779 735.362,223.332 734.906,223.762C734.451,224.192 733.866,224.407 733.153,224.407C732.245,224.407 731.571,224.073 731.132,223.406C730.95,223.126 730.834,222.738 730.785,222.244L731.884,222.244C731.942,222.608 732.085,222.887 732.311,223.081C732.537,223.275 732.833,223.371 733.197,223.371C733.565,223.371 733.87,223.249 734.11,223.005C734.351,222.755 734.472,222.437 734.472,222.053C734.472,221.545 734.291,221.184 733.93,220.969C733.718,220.845 733.391,220.784 732.948,220.784Z" style="fill:rgb(203,92,100);fill-rule:nonzero;"/>
            </g>
            <path d="M995.866,281.969C994.12,294.723 989.696,306.628 983.175,317.089L830.37,317.089C823.838,306.624 819.407,294.721 817.679,281.969L995.866,281.969ZM976.253,298.98C976.253,291.956 970.551,286.254 963.527,286.254L850.018,286.254C842.994,286.254 837.292,291.956 837.292,298.98C837.292,306.004 842.994,311.706 850.018,311.706L963.527,311.706C970.551,311.706 976.253,306.004 976.253,298.98Z" style="fill:rgb(64,118,166);stroke:rgb(64,118,166);stroke-width:2px;"/>
            <g transform="matrix(1,0,0,1,446.886,64.5823)">
                <path d="M414.258,232.78L419.461,232.78L419.461,228.062L421.281,228.062L421.281,240.124L419.461,240.124L419.461,234.491L414.258,234.491L414.258,240.124L412.437,240.124L412.437,228.062L414.258,228.062L414.258,232.78Z" style="fill:rgb(64,118,166);fill-rule:nonzero;"/>
                <path d="M426.609,234.913L422.672,228.062L424.766,228.062L427.523,232.882L430.289,228.062L432.383,228.062L428.43,234.913L428.43,240.124L426.609,240.124L426.609,234.913Z" style="fill:rgb(64,118,166);fill-rule:nonzero;"/>
                <path d="M435.594,235.226L435.594,240.124L433.773,240.124L433.773,228.062L435.836,228.062C436.846,228.062 437.609,228.132 438.125,228.272C438.646,228.413 439.104,228.679 439.5,229.069C440.193,229.746 440.539,230.601 440.539,231.632C440.539,232.736 440.169,233.611 439.43,234.257C438.69,234.903 437.693,235.226 436.437,235.226L435.594,235.226ZM435.594,233.538L436.273,233.538C437.945,233.538 438.781,232.895 438.781,231.608C438.781,230.364 437.919,229.741 436.195,229.741L435.594,229.741L435.594,233.538Z" style="fill:rgb(64,118,166);fill-rule:nonzero;"/>
                <path d="M449.07,229.772L444.234,229.772L444.234,232.671L448.93,232.671L448.93,234.382L444.234,234.382L444.234,238.413L449.07,238.413L449.07,240.124L442.414,240.124L442.414,228.062L449.07,228.062L449.07,229.772Z" style="fill:rgb(64,118,166);fill-rule:nonzero;"/>
                <path d="M455.547,234.983L459.281,240.124L457.055,240.124L453.609,235.187L453.281,235.187L453.281,240.124L451.461,240.124L451.461,228.062L453.594,228.062C455.187,228.062 456.338,228.361 457.047,228.96C457.828,229.627 458.219,230.507 458.219,231.601C458.219,232.455 457.974,233.189 457.484,233.804C456.995,234.418 456.349,234.812 455.547,234.983ZM453.281,233.601L453.859,233.601C455.583,233.601 456.445,232.942 456.445,231.624C456.445,230.39 455.607,229.772 453.93,229.772L453.281,229.772L453.281,233.601Z" style="fill:rgb(64,118,166);fill-rule:nonzero;"/>
                <path d="M467.914,229.858L466.437,230.733C466.161,230.254 465.898,229.942 465.648,229.796C465.388,229.629 465.052,229.546 464.641,229.546C464.135,229.546 463.716,229.689 463.383,229.976C463.049,230.257 462.883,230.611 462.883,231.038C462.883,231.627 463.32,232.101 464.195,232.46L465.398,232.952C466.378,233.348 467.094,233.831 467.547,234.401C468,234.972 468.226,235.671 468.226,236.499C468.226,237.608 467.857,238.525 467.117,239.249C466.372,239.978 465.448,240.343 464.344,240.343C463.297,240.343 462.432,240.033 461.75,239.413C461.078,238.793 460.659,237.921 460.492,236.796L462.336,236.39C462.419,237.098 462.565,237.588 462.773,237.858C463.148,238.379 463.695,238.64 464.414,238.64C464.982,238.64 465.453,238.45 465.828,238.069C466.203,237.689 466.391,237.207 466.391,236.624C466.391,236.39 466.358,236.175 466.293,235.98C466.228,235.784 466.126,235.605 465.988,235.44C465.85,235.276 465.672,235.123 465.453,234.98C465.234,234.836 464.974,234.7 464.672,234.569L463.508,234.085C461.857,233.387 461.031,232.366 461.031,231.022C461.031,230.116 461.378,229.358 462.07,228.749C462.763,228.134 463.625,227.827 464.656,227.827C466.047,227.827 467.133,228.504 467.914,229.858Z" style="fill:rgb(64,118,166);fill-rule:nonzero;"/>
                <path d="M472.242,235.226L472.242,240.124L470.422,240.124L470.422,228.062L472.484,228.062C473.495,228.062 474.258,228.132 474.773,228.272C475.294,228.413 475.753,228.679 476.148,229.069C476.841,229.746 477.187,230.601 477.187,231.632C477.187,232.736 476.818,233.611 476.078,234.257C475.338,234.903 474.341,235.226 473.086,235.226L472.242,235.226ZM472.242,233.538L472.922,233.538C474.594,233.538 475.43,232.895 475.43,231.608C475.43,230.364 474.568,229.741 472.844,229.741L472.242,229.741L472.242,233.538Z" style="fill:rgb(64,118,166);fill-rule:nonzero;"/>
                <path d="M485.266,237.194L480.101,237.194L478.758,240.124L476.797,240.124L482.766,227.304L488.523,240.124L486.531,240.124L485.266,237.194ZM484.523,235.483L482.734,231.382L480.859,235.483L484.523,235.483Z" style="fill:rgb(64,118,166);fill-rule:nonzero;"/>
                <path d="M498.383,228.71L498.383,230.866C497.331,229.986 496.242,229.546 495.117,229.546C493.878,229.546 492.833,229.991 491.984,230.882C491.13,231.767 490.703,232.851 490.703,234.132C490.703,235.397 491.13,236.465 491.984,237.335C492.838,238.205 493.885,238.64 495.125,238.64C495.766,238.64 496.31,238.535 496.758,238.327C497.008,238.223 497.267,238.082 497.535,237.905C497.803,237.728 498.086,237.515 498.383,237.265L498.383,239.46C497.341,240.049 496.247,240.343 495.101,240.343C493.378,240.343 491.906,239.741 490.687,238.538C489.474,237.325 488.867,235.861 488.867,234.147C488.867,232.611 489.375,231.241 490.391,230.038C491.641,228.564 493.258,227.827 495.242,227.827C496.325,227.827 497.372,228.121 498.383,228.71Z" style="fill:rgb(64,118,166);fill-rule:nonzero;"/>
                <path d="M507.336,229.772L502.5,229.772L502.5,232.671L507.195,232.671L507.195,234.382L502.5,234.382L502.5,238.413L507.336,238.413L507.336,240.124L500.68,240.124L500.68,228.062L507.336,228.062L507.336,229.772Z" style="fill:rgb(64,118,166);fill-rule:nonzero;"/>
            </g>
            <g transform="matrix(1,0,0,1,-0.593352,0)">
                <g transform="matrix(0.700578,0,0,0.700578,682.331,82.2905)">
                    <g transform="matrix(1,0,0,1,0,-0.210181)">
                        <circle cx="274.911" cy="255.269" r="1.965" style="fill:rgb(182,60,70);"/>
                    </g>
                    <g transform="matrix(1,0,0,1,-0.00515011,5.76291)">
                        <circle cx="274.911" cy="255.269" r="1.965" style="fill:rgb(182,60,70);"/>
                    </g>
                    <g transform="matrix(1,0,0,1,0.126693,11.4517)">
                        <circle cx="274.911" cy="255.269" r="1.965" style="fill:rgb(182,60,70);"/>
                    </g>
                    <g transform="matrix(1,0,0,1,19.818,-0.210181)">
                        <circle cx="274.911" cy="255.269" r="1.965" style="fill:rgb(182,60,70);"/>
                    </g>
                    <g transform="matrix(1,0,0,1,19.8128,5.76291)">
                        <circle cx="274.911" cy="255.269" r="1.965" style="fill:rgb(182,60,70);"/>
                    </g>
                    <g transform="matrix(1,0,0,1,19.9447,11.4517)">
                        <circle cx="274.911" cy="255.269" r="1.965" style="fill:rgb(182,60,70);"/>
                    </g>
                    <g transform="matrix(1,0,0,1,39.636,-0.210181)">
                        <circle cx="274.911" cy="255.269" r="1.965" style="fill:rgb(182,60,70);"/>
                    </g>
                    <g transform="matrix(1,0,0,1,39.6308,5.76291)">
                        <circle cx="274.911" cy="255.269" r="1.965" style="fill:rgb(182,60,70);"/>
                    </g>
                    <g transform="matrix(1,0,0,1,39.7626,11.4517)">
                        <circle cx="274.911" cy="255.269" r="1.965" style="fill:rgb(182,60,70);"/>
                    </g>
                    <g transform="matrix(1,0,0,1,59.4539,-0.210181)">
                        <circle cx="274.911" cy="255.269" r="1.965" style="fill:rgb(182,60,70);"/>
                    </g>
                    <g transform="matrix(1,0,0,1,59.4488,5.76291)">
                        <circle cx="274.911" cy="255.269" r="1.965" style="fill:rgb(182,60,70);"/>
                    </g>
                    <g transform="matrix(1,0,0,1,59.5806,11.4517)">
                        <circle cx="274.911" cy="255.269" r="1.965" style="fill:rgb(182,60,70);"/>
                    </g>
                    <g transform="matrix(1,0,0,1,79.2719,-0.210181)">
                        <circle cx="274.911" cy="255.269" r="1.965" style="fill:rgb(182,60,70);"/>
                    </g>
                    <g transform="matrix(1,0,0,1,79.2668,5.76291)">
                        <circle cx="274.911" cy="255.269" r="1.965" style="fill:rgb(182,60,70);"/>
                    </g>
                    <g transform="matrix(1,0,0,1,79.3986,11.4517)">
                        <circle cx="274.911" cy="255.269" r="1.965" style="fill:rgb(182,60,70);"/>
                    </g>
                    <g transform="matrix(1,0,0,1,6.60599,-0.210181)">
                        <circle cx="274.911" cy="255.269" r="1.965" style="fill:rgb(182,60,70);"/>
                    </g>
                    <g transform="matrix(1,0,0,1,6.60084,5.76291)">
                        <circle cx="274.911" cy="255.269" r="1.965" style="fill:rgb(182,60,70);"/>
                    </g>
                    <g transform="matrix(1,0,0,1,6.73269,11.4517)">
                        <circle cx="274.911" cy="255.269" r="1.965" style="fill:rgb(182,60,70);"/>
                    </g>
                    <g transform="matrix(1,0,0,1,26.424,-0.210181)">
                        <circle cx="274.911" cy="255.269" r="1.965" style="fill:rgb(182,60,70);"/>
                    </g>
                    <g transform="matrix(1,0,0,1,26.4188,5.76291)">
                        <circle cx="274.911" cy="255.269" r="1.965" style="fill:rgb(182,60,70);"/>
                    </g>
                    <g transform="matrix(1,0,0,1,26.5507,11.4517)">
                        <circle cx="274.911" cy="255.269" r="1.965" style="fill:rgb(182,60,70);"/>
                    </g>
                    <g transform="matrix(1,0,0,1,46.2419,-0.210181)">
                        <circle cx="274.911" cy="255.269" r="1.965" style="fill:rgb(182,60,70);"/>
                    </g>
                    <g transform="matrix(1,0,0,1,46.2368,5.76291)">
                        <circle cx="274.911" cy="255.269" r="1.965" style="fill:rgb(182,60,70);"/>
                    </g>
                    <g transform="matrix(1,0,0,1,46.3686,11.4517)">
                        <circle cx="274.911" cy="255.269" r="1.965" style="fill:rgb(182,60,70);"/>
                    </g>
                    <g transform="matrix(1,0,0,1,66.0599,-0.210181)">
                        <circle cx="274.911" cy="255.269" r="1.965" style="fill:rgb(182,60,70);"/>
                    </g>
                    <g transform="matrix(1,0,0,1,66.0548,5.76291)">
                        <circle cx="274.911" cy="255.269" r="1.965" style="fill:rgb(182,60,70);"/>
                    </g>
                    <g transform="matrix(1,0,0,1,66.1866,11.4517)">
                        <circle cx="274.911" cy="255.269" r="1.965" style="fill:rgb(182,60,70);"/>
                    </g>
                    <g transform="matrix(1,0,0,1,85.8779,-0.210181)">
                        <circle cx="274.911" cy="255.269" r="1.965" style="fill:rgb(182,60,70);"/>
                    </g>
                    <g transform="matrix(1,0,0,1,85.8728,5.76291)">
                        <circle cx="274.911" cy="255.269" r="1.965" style="fill:rgb(182,60,70);"/>
                    </g>
                    <g transform="matrix(1,0,0,1,86.0046,11.4517)">
                        <circle cx="274.911" cy="255.269" r="1.965" style="fill:rgb(182,60,70);"/>
                    </g>
                    <g transform="matrix(1,0,0,1,13.212,-0.210181)">
                        <circle cx="274.911" cy="255.269" r="1.965" style="fill:rgb(182,60,70);"/>
                    </g>
                    <g transform="matrix(1,0,0,1,13.2068,5.76291)">
                        <circle cx="274.911" cy="255.269" r="1.965" style="fill:rgb(182,60,70);"/>
                    </g>
                    <g transform="matrix(1,0,0,1,13.3387,11.4517)">
                        <circle cx="274.911" cy="255.269" r="1.965" style="fill:rgb(182,60,70);"/>
                    </g>
                    <g transform="matrix(1,0,0,1,33.03,-0.210181)">
                        <circle cx="274.911" cy="255.269" r="1.965" style="fill:rgb(182,60,70);"/>
                    </g>
                    <g transform="matrix(1,0,0,1,33.0248,5.76291)">
                        <circle cx="274.911" cy="255.269" r="1.965" style="fill:rgb(182,60,70);"/>
                    </g>
                    <g transform="matrix(1,0,0,1,33.1567,11.4517)">
                        <circle cx="274.911" cy="255.269" r="1.965" style="fill:rgb(182,60,70);"/>
                    </g>
                    <g transform="matrix(1,0,0,1,52.8479,-0.210181)">
                        <circle cx="274.911" cy="255.269" r="1.965" style="fill:rgb(182,60,70);"/>
                    </g>
                    <g transform="matrix(1,0,0,1,52.8428,5.76291)">
                        <circle cx="274.911" cy="255.269" r="1.965" style="fill:rgb(182,60,70);"/>
                    </g>
                    <g transform="matrix(1,0,0,1,52.9746,11.4517)">
                        <circle cx="274.911" cy="255.269" r="1.965" style="fill:rgb(182,60,70);"/>
                    </g>
                    <g transform="matrix(1,0,0,1,72.6659,-0.210181)">
                        <circle cx="274.911" cy="255.269" r="1.965" style="fill:rgb(182,60,70);"/>
                    </g>
                    <g transform="matrix(1,0,0,1,72.6608,5.76291)">
                        <circle cx="274.911" cy="255.269" r="1.965" style="fill:rgb(182,60,70);"/>
                    </g>
                    <g transform="matrix(1,0,0,1,72.7926,11.4517)">
                        <circle cx="274.911" cy="255.269" r="1.965" style="fill:rgb(182,60,70);"/>
                    </g>
                    <g transform="matrix(1,0,0,1,92.4839,-0.210181)">
                        <circle cx="274.911" cy="255.269" r="1.965" style="fill:rgb(182,60,70);"/>
                    </g>
                    <g transform="matrix(1,0,0,1,92.4787,5.76291)">
                        <circle cx="274.911" cy="255.269" r="1.965" style="fill:rgb(182,60,70);"/>
                    </g>
                    <g transform="matrix(1,0,0,1,92.6106,11.4517)">
                        <circle cx="274.911" cy="255.269" r="1.965" style="fill:rgb(182,60,70);"/>
                    </g>
                </g>
                <g transform="matrix(1,0,0,1,841.224,253.064)">
                    <path d="M12,21C16.09,21 19.691,18.213 20.716,14.253M12,21C7.91,21 4.309,18.213 3.284,14.253M12,21C14.485,21 16.5,16.97 16.5,12C16.5,7.03 14.485,3 12,3M12,21C9.515,21 7.5,16.97 7.5,12C7.5,7.03 9.515,3 12,3M12,3C15.246,2.999 18.25,4.754 19.843,7.582M12,3C8.754,2.999 5.75,4.754 4.157,7.582M19.843,7.582C17.666,9.467 14.88,10.504 12,10.5C9.002,10.5 6.26,9.4 4.157,7.582M19.843,7.582C20.604,8.93 21.002,10.452 21,12C21,12.778 20.901,13.533 20.716,14.253M20.716,14.253C18.049,15.731 15.049,16.505 12,16.5C8.838,16.5 5.867,15.685 3.284,14.253M3.284,14.253C3.095,13.517 2.999,12.76 3,12C3,10.395 3.42,8.887 4.157,7.582" style="fill:none;fill-rule:nonzero;stroke:rgb(64,118,166);stroke-width:1.5px;stroke-miterlimit:4;"/>
                </g>
                <g transform="matrix(1,0,0,1,949.507,253.064)">
                    <path d="M12,21C16.09,21 19.691,18.213 20.716,14.253M12,21C7.91,21 4.309,18.213 3.284,14.253M12,21C14.485,21 16.5,16.97 16.5,12C16.5,7.03 14.485,3 12,3M12,21C9.515,21 7.5,16.97 7.5,12C7.5,7.03 9.515,3 12,3M12,3C15.246,2.999 18.25,4.754 19.843,7.582M12,3C8.754,2.999 5.75,4.754 4.157,7.582M19.843,7.582C17.666,9.467 14.88,10.504 12,10.5C9.002,10.5 6.26,9.4 4.157,7.582M19.843,7.582C20.604,8.93 21.002,10.452 21,12C21,12.778 20.901,13.533 20.716,14.253M20.716,14.253C18.049,15.731 15.049,16.505 12,16.5C8.838,16.5 5.867,15.685 3.284,14.253M3.284,14.253C3.095,13.517 2.999,12.76 3,12C3,10.395 3.42,8.887 4.157,7.582" style="fill:none;fill-rule:nonzero;stroke:rgb(64,118,166);stroke-width:1.5px;stroke-miterlimit:4;"/>
                </g>
            </g>
        </g>
    </g>
</svg>
